PathFileType	4	(X/Y/Z)	Squat.trc	
DataRate	CameraRate	NumFrames	NumMarkers	Units	OrigDataRate	OrigDataStartFrame	OrigNumFrames	
100.00	100.00	40	6	mm	100.00	1350	1542	
Frame#	Time	RAsis			SACR			LThighInferior			LThighLateral			LAsis			LThighSuperior			
		X1	Y1	Z1	X2	Y2	Z2	X3	Y3	Z3	X4	Y4	Z4	X5	Y5	Z5	X6	Y6	Z6	

579	5.780	540.97235	1232.59668	798.07629	413.71640	1082.86267	877.47009	210.93689	1321.30945	538.79071	237.09331	1338.91565	658.14948	293.78427	1241.64429	784.55994	206.67030	1225.00562	651.31079 
580	5.790	540.89532	1231.71606	794.03082	413.60645	1082.06738	873.55029	211.23665	1322.48511	537.02954	237.55464	1338.93457	656.54407	293.77734	1240.83264	780.67096	206.86139	1225.07239	648.60211 
581	5.800	540.79712	1230.88831	790.06281	413.44452	1081.27283	869.65289	211.49127	1323.51794	535.29498	237.96196	1338.89709	654.95233	293.72058	1240.01147	776.78937	206.99678	1225.12927	645.97449 
582	5.810	540.70905	1230.22205	786.27972	413.34171	1080.55579	866.08588	211.72305	1324.34631	533.55005	238.34869	1338.69019	653.26007	293.63971	1239.13696	772.86670	207.03455	1225.19824	643.43872 
583	5.820	540.60645	1229.55359	782.66821	413.31870	1079.90100	862.70105	211.86812	1325.07080	531.78351	238.59740	1338.41284	651.58917	293.57199	1238.29919	769.01013	207.05157	1225.17029	640.92285 
584	5.830	540.45892	1228.73169	778.97192	413.34109	1079.42358	859.21259	211.87256	1325.75049	530.05530	238.58127	1338.19324	650.03046	293.50363	1237.60083	765.38562	207.05994	1224.98962	638.40710 
585	5.840	540.41205	1228.16357	775.32825	413.31635	1078.97498	855.79150	211.75519	1326.34131	528.37665	238.15038	1337.95459	648.70447	293.42664	1237.00830	761.91815	207.02870	1224.70361	635.99249 
586	5.850	540.38226	1227.70569	771.88904	413.18939	1078.49084	852.60345	211.56700	1326.80603	526.70093	237.48389	1337.53625	647.60687	293.31747	1236.47595	758.53027	206.90227	1224.38367	633.63782 
587	5.860	540.21185	1227.00146	768.49249	413.05890	1078.08960	849.43677	211.31609	1327.17932	525.07153	237.06468	1336.98291	646.15967	293.23941	1235.88037	755.15460	206.68344	1223.99353	631.19476 
588	5.870	540.08173	1226.41284	765.16473	413.00394	1077.65747	846.24225	210.97697	1327.49915	523.48267	236.78780	1336.47217	644.30725	293.18024	1235.24219	751.80707	206.38393	1223.59216	628.85132 
589	5.880	540.00610	1225.96411	761.88464	412.88138	1077.28918	843.15808	210.52702	1327.77612	521.95740	236.41141	1335.99170	642.56189	293.07562	1234.63501	748.58325	206.03804	1223.18457	626.66162 
590	5.890	539.89911	1225.57739	758.59973	412.75223	1076.94641	840.11407	209.94432	1328.04529	520.53235	235.96510	1335.50232	641.02094	292.87000	1234.14014	745.49530	205.70341	1222.67480	624.49957 
591	5.900	539.74969	1225.34143	755.50012	412.70593	1076.57239	837.16199	209.29478	1328.26929	519.13965	235.43234	1335.03455	639.61072	292.64029	1233.76099	742.53882	205.37021	1222.14429	622.43835 
592	5.910	539.54108	1224.95581	752.41718	412.53799	1076.39758	834.37219	207.58188	1328.14099	519.91693	234.85791	1334.54932	638.32330	292.50345	1233.26526	739.58374	204.98187	1221.68201	620.49896 
593	5.920	539.34937	1224.50269	749.21808	412.43787	1076.25598	831.56604	206.69275	1328.55347	518.80365	234.26994	1334.05908	637.12329	292.36020	1232.63281	736.55914	204.54730	1221.24854	618.62897 
594	5.930	539.11951	1224.22375	746.17291	412.54749	1075.95825	828.75574	206.23570	1329.17871	516.73584	233.68993	1333.61340	635.94147	292.14554	1232.16760	733.66492	204.13974	1220.86597	616.87347 
595	5.940	538.85193	1223.86780	743.13074	412.49487	1075.74414	826.03296	205.74118	1329.83533	514.66907	233.19772	1333.14648	634.72205	291.86411	1231.89624	730.84875	203.75249	1220.57019	615.24713 
596	5.950	538.67578	1223.48560	740.02216	412.35202	1075.56531	823.26093	205.25839	1330.48035	512.59283	232.76422	1332.65857	633.51154	291.62277	1231.49548	727.88837	203.44727	1220.08752	613.25293 
597	5.960	538.51990	1223.19312	737.06238	412.36426	1075.30688	820.43396	204.79863	1331.12573	510.53329	232.31532	1332.25745	632.32654	291.42203	1231.10339	724.91522	203.09915	1219.72791	611.34326 
598	5.970	538.36108	1222.87073	734.21051	412.29938	1075.13159	817.55023	204.32256	1331.89832	508.51767	231.86098	1331.94946	631.08746	291.22742	1230.98755	722.13824	202.67062	1219.56702	609.51013 
599	5.980	538.26514	1222.55542	731.35333	411.89951	1075.01868	814.67950	203.78162	1332.07739	507.46332	231.41521	1331.70801	629.81201	291.17465	1230.85266	719.43042	202.21255	1219.49121	607.67371 
600	5.990	538.21234	1222.31860	728.50867	411.53305	1074.72485	812.07654	203.12245	1331.51941	507.51791	230.96211	1331.54041	628.54425	291.16678	1230.61829	716.64148	201.84041	1219.38110	605.74957 
601	6.000	538.16620	1222.07898	725.71259	411.49942	1074.37878	809.50714	202.52077	1331.48206	506.93069	230.54465	1331.43591	627.22797	291.05627	1230.49353	713.83539	201.49951	1219.33105	603.76654 
602	6.010	538.05969	1221.72339	722.85956	411.44339	1074.27893	806.77472	202.08348	1332.06396	505.57855	230.23459	1331.34778	625.84589	290.91830	1230.37622	711.02087	201.15390	1219.37732	601.79041 
603	6.020	537.93579	1221.36987	720.04266	411.17444	1074.30823	804.02185	201.72156	1332.65039	504.25781	229.97246	1331.25342	624.45172	290.82980	1230.19092	708.20514	200.88840	1219.41687	599.81482 
604	6.030	537.83887	1221.07104	717.27960	410.84726	1074.24170	801.19287	201.37321	1333.11475	502.76703	229.72282	1331.12598	623.04993	290.73764	1230.01379	705.42938	200.66560	1219.42834	597.83423 
605	6.040	537.72876	1220.72852	714.42511	410.67157	1074.07007	798.33032	201.00345	1333.57397	501.25156	229.52133	1330.95837	621.65857	290.66232	1229.84460	702.70441	200.41876	1219.47180	595.90326 
606	6.050	537.60889	1220.33777	711.59467	410.62061	1073.93079	795.59039	200.66168	1334.13440	499.96097	229.32581	1330.79639	620.33826	290.64536	1229.73889	700.04431	200.19397	1219.50977	594.00500 
607	6.060	537.51740	1219.97034	708.82349	410.54205	1073.86707	792.97919	200.40959	1334.59656	498.66251	229.13832	1330.62866	619.06805	290.56729	1229.67664	697.33307	200.03810	1219.44824	592.07416 
608	6.070	537.56097	1219.79028	706.09271	410.50760	1073.68799	790.33411	200.18846	1334.98132	497.35934	229.01453	1330.45410	617.80682	290.49185	1229.38403	694.46320	199.89850	1219.38135	590.22607 
609	6.080	537.59845	1219.64014	703.37390	410.49203	1073.33228	787.58600	200.00772	1335.39807	496.20294	228.96439	1330.28113	616.55371	290.44598	1229.00732	691.60559	199.70134	1219.40015	588.44489 
610	6.090	537.47583	1219.20215	700.55524	410.30145	1073.13318	784.84363	199.90034	1335.82373	495.09842	228.97105	1330.06812	615.28918	290.35767	1228.81812	688.90570	199.46603	1219.44690	586.61621 
611	6.100	537.34967	1218.82849	697.80005	410.01703	1073.10803	782.05786	199.74435	1336.22949	493.88797	228.97768	1329.83740	613.98669	290.27173	1228.66931	686.27032	199.25638	1219.45593	584.79620 
612	6.110	537.25854	1218.62378	695.08508	409.86667	1072.95032	779.23737	199.50662	1336.64355	492.66733	228.95999	1329.60364	612.65759	290.18753	1228.50879	683.64349	199.10228	1219.40540	582.99921 
613	6.120	537.17548	1218.31067	692.24072	409.80316	1072.73059	776.49976	199.22490	1337.08521	491.51495	228.95563	1329.31348	611.38226	290.10669	1228.36987	681.02917	199.03108	1219.31372	581.25385 
614	6.130	537.11206	1218.01196	689.39819	409.72464	1072.60815	773.85712	198.94600	1337.44153	490.28775	228.92104	1328.97607	610.15356	289.93582	1228.22974	678.31799	198.82664	1219.07874	579.23022 
615	6.140	537.04486	1217.69922	686.50800	409.75153	1072.45984	771.20557	198.85597	1337.63635	489.10779	228.79674	1328.60120	608.84943	289.72214	1228.01709	675.50208	198.57780	1218.92542	577.37805 
616	6.150	537.00873	1217.41028	683.53979	409.86984	1072.20752	768.38940	198.74959	1337.84351	487.94037	228.62354	1328.19568	607.50421	289.59219	1227.78845	672.74146	198.36217	1218.78760	575.53040 
617	6.160	536.96344	1217.13013	680.66260	409.81253	1072.04199	765.50275	198.47791	1338.12207	486.64792	228.47313	1327.81018	606.21130	289.51172	1227.64880	670.07593	198.20604	1218.61621	573.61670 
618	6.170	536.87653	1216.79919	677.87225	409.67017	1071.99573	762.65326	198.19865	1338.39868	485.33087	228.39481	1327.42969	604.90723	289.47409	1227.51831	667.42188	198.14056	1218.37207	571.70319 
